<svg width="720" height="720" viewBox="0 0 720 720" fill="none" xmlns="http://www.w3.org/2000/svg">
<rect width="720" height="720" rx="130" fill="#122650"/>
<g clip-path="url(#clip0_304_585)">
<path d="M162.2 389.68C168.518 432.021 188.293 471.205 218.6 501.44L286.8 433.2C286.801 398.094 296.043 363.606 313.596 333.203C331.15 302.8 356.397 277.553 386.8 260L162.2 389.68Z" fill="#9B65C3"/>
<path d="M286.8 433.2C251.69 433.258 217.189 424.026 186.8 406.44V406.44C178.198 401.468 169.976 395.866 162.2 389.68C168.518 432.021 188.293 471.205 218.6 501.44L286.8 433.2Z" fill="#9B65C3"/>
<path d="M286.8 433.2L218.6 501.4C248.834 531.708 288.019 551.482 330.36 557.8L460 333.2C442.446 363.603 417.2 388.85 386.797 406.404C356.394 423.958 321.906 433.199 286.8 433.2V433.2Z" fill="#BE63C5"/>
<path d="M313.6 533.2C296.014 502.811 286.782 468.311 286.84 433.2L218.6 501.4C248.834 531.708 288.019 551.482 330.36 557.8C324.174 550.025 318.572 541.802 313.6 533.2V533.2Z" fill="#BF63C6"/>
<path d="M541.12 170.92L386.8 260C356.396 277.554 321.908 286.795 286.8 286.795C251.693 286.795 217.204 277.554 186.8 260C169.201 290.385 159.954 324.886 160 360V360C160.001 369.934 160.737 379.854 162.2 389.68C169.977 395.852 178.2 401.44 186.8 406.4V406.4C217.189 423.985 251.69 433.218 286.8 433.16V433.16L545.32 174.68C543.992 173.349 542.59 172.093 541.12 170.92V170.92Z" fill="#3278B1"/>
<path d="M186.8 406.4C217.189 423.986 251.69 433.218 286.8 433.16C286.808 398.06 296.053 363.581 313.606 333.186C331.16 302.79 356.403 277.55 386.8 260L162.2 389.68C169.977 395.852 178.2 401.44 186.8 406.4V406.4Z" fill="#3278B2"/>
<path d="M186.84 260C169.227 290.381 159.966 324.882 160 360V360C160.001 369.934 160.736 379.854 162.2 389.68L386.8 260C356.401 277.546 321.92 286.783 286.82 286.783C251.721 286.783 217.239 277.546 186.84 260V260Z" fill="#45A4EC"/>
<path d="M545.32 174.68C542.226 171.561 538.728 168.871 534.92 166.68C527.348 162.294 518.75 159.99 510 160H360C324.9 160.008 290.421 169.253 260.025 186.806C229.63 204.36 204.39 229.603 186.84 260C217.244 277.554 251.733 286.795 286.84 286.795C321.947 286.795 356.436 277.554 386.84 260C356.437 277.553 331.19 302.8 313.636 333.203C296.082 363.606 286.841 398.094 286.84 433.2V433.2C321.94 433.192 356.419 423.947 386.814 406.394C417.21 388.841 442.45 363.597 460 333.2L549.08 178.88C547.906 177.41 546.651 176.008 545.32 174.68V174.68Z" fill="#19BB7D"/>
<path d="M386.8 260L541.12 170.92C539.166 169.439 537.108 168.102 534.96 166.92L186.84 260C217.239 277.546 251.72 286.783 286.82 286.783C321.919 286.783 356.401 277.546 386.8 260V260Z" fill="#08C7FB"/>
<path d="M510 160H360C324.9 160.008 290.421 169.253 260.025 186.806C229.63 204.359 204.39 229.603 186.84 260L534.84 166.72C527.295 162.334 518.727 160.016 510 160V160Z" fill="#59F2F6"/>
<path d="M460 333.2L549.08 178.88C547.907 177.411 546.651 176.008 545.32 174.68L286.8 433.2C286.742 468.311 295.975 502.811 313.56 533.2C318.532 541.802 324.134 550.025 330.32 557.8C340.146 559.264 350.066 559.999 360 560V560C395.118 560.034 429.619 550.774 460 533.16C442.454 502.761 433.217 468.28 433.217 433.18C433.217 398.081 442.454 363.599 460 333.2V333.2Z" fill="#DA3757"/>
<path d="M286.8 433.2C286.742 468.311 295.975 502.811 313.56 533.2C318.533 541.802 324.135 550.025 330.32 557.8L460 333.2C442.447 363.603 417.2 388.85 386.797 406.404C356.394 423.958 321.907 433.199 286.8 433.2V433.2Z" fill="#D33C4E"/>
<path d="M460 333.2L330.32 557.8C340.146 559.264 350.066 559.999 360 560V560C395.118 560.034 429.619 550.774 460 533.16C442.454 502.761 433.217 468.28 433.217 433.18C433.217 398.081 442.454 363.599 460 333.2V333.2Z" fill="#EE5A24"/>
<path d="M553.28 185.08C550.203 179.649 546.133 174.846 541.28 170.92L386.8 260C356.397 277.553 331.15 302.8 313.596 333.203C296.042 363.606 286.801 398.093 286.8 433.2V433.2C321.906 433.199 356.394 423.957 386.797 406.404C417.2 388.85 442.447 363.603 460 333.2C442.446 363.604 433.205 398.093 433.205 433.2C433.205 468.307 442.446 502.796 460 533.2C490.403 515.647 515.65 490.4 533.204 459.997C550.757 429.594 559.999 395.106 560 360V210C559.998 201.246 557.68 192.648 553.28 185.08V185.08Z" fill="#8BDF55"/>
<path d="M541.12 170.92L386.8 260C356.397 277.553 331.15 302.8 313.596 333.203C296.042 363.606 286.801 398.093 286.8 433.2V433.2L545.32 174.68C543.991 173.349 542.589 172.094 541.12 170.92V170.92Z" fill="#25C16F"/>
<path d="M286.8 433.2C321.906 433.199 356.394 423.958 386.797 406.404C417.2 388.85 442.447 363.603 460 333.2L549.08 178.88C547.906 177.411 546.651 176.009 545.32 174.68L286.8 433.2Z" fill="#8BDF55"/>
<path d="M549.08 178.88L460 333.2C442.446 363.604 433.205 398.093 433.205 433.2C433.205 468.307 442.446 502.796 460 533.2L553.28 185.2C552.041 182.991 550.637 180.878 549.08 178.88V178.88Z" fill="#FFBB00"/>
<path d="M460 533.16C490.397 515.61 515.641 490.37 533.194 459.975C550.747 429.579 559.992 395.1 560 360V210C559.998 201.246 557.68 192.648 553.28 185.08L460 533.16Z" fill="#FFA800"/>
</g>
<defs>
<clipPath id="clip0_304_585">
<rect width="400" height="400" fill="white" transform="translate(160 160)"/>
</clipPath>
</defs>
</svg>
